<?xml version="1.0" encoding="UTF-8" standalone="no"?>
<!-- Created with Inkscape (http://www.inkscape.org/) -->

<svg
   xmlns:dc="http://purl.org/dc/elements/1.1/"
   xmlns:cc="http://creativecommons.org/ns#"
   xmlns:rdf="http://www.w3.org/1999/02/22-rdf-syntax-ns#"
   xmlns:svg="http://www.w3.org/2000/svg"
   xmlns="http://www.w3.org/2000/svg"
   xmlns:sodipodi="http://sodipodi.sourceforge.net/DTD/sodipodi-0.dtd"
   xmlns:inkscape="http://www.inkscape.org/namespaces/inkscape"
   width="227.68726"
   height="220.33714"
   id="svg3963"
   version="1.1"
   inkscape:version="0.48.4 r9939"
   sodipodi:docname="bootprint.svg">
  <defs
     id="defs3965">
    <inkscape:path-effect
       effect="envelope"
       id="path-effect4648"
       is_visible="true"
       yy="true"
       xx="true"
       bendpath1="m 151.3026,282.31136 c 50.33815,-27.18061 117.34299,-30.25003 169.43929,-44.69213"
       bendpath2="m 320.0325,238.32862 c 16.3849,45.06066 33.97538,88.91573 46.82032,137.51634"
       bendpath3="m 215.1485,439.69086 c 47.00726,-21.51843 101.92679,-47.29325 153.12312,-62.4271"
       bendpath4="m 152.7214,283.02075 c 23.45923,56.43331 43.29416,108.90768 48.94853,158.08892"
       bendpath1-nodetypes="cc"
       bendpath2-nodetypes="cc"
       bendpath3-nodetypes="cc"
       bendpath4-nodetypes="cc" />
    <linearGradient
       id="linearGradient1696">
      <stop
         offset="0"
         style="stop-color:#d7d4d5"
         id="stop1697" />
      <stop
         offset="1"
         style="stop-color:#f2f2f2"
         id="stop1698" />
    </linearGradient>
    <linearGradient
       id="linearGradient1731">
      <stop
         offset="0"
         style="stop-color:#606060"
         id="stop1732" />
      <stop
         offset="1"
         style="stop-color:#f0f0f0"
         id="stop1733" />
    </linearGradient>
  </defs>
  <sodipodi:namedview
     id="base"
     pagecolor="#ffffff"
     bordercolor="#666666"
     borderopacity="1.0"
     inkscape:pageopacity="0.0"
     inkscape:pageshadow="2"
     inkscape:zoom="0.98994949"
     inkscape:cx="114.51719"
     inkscape:cy="-71.672382"
     inkscape:document-units="px"
     inkscape:current-layer="layer1"
     showgrid="false"
     fit-margin-top="0"
     fit-margin-left="0"
     fit-margin-right="0"
     fit-margin-bottom="0"
     inkscape:window-width="1632"
     inkscape:window-height="1025"
     inkscape:window-x="48"
     inkscape:window-y="0"
     inkscape:window-maximized="1" />
  <metadata
     id="metadata3968">
    <rdf:RDF>
      <cc:Work
         rdf:about="">
        <dc:format>image/svg+xml</dc:format>
        <dc:type
           rdf:resource="http://purl.org/dc/dcmitype/StillImage" />
        <dc:title />
      </cc:Work>
    </rdf:RDF>
  </metadata>
  <g
     inkscape:label="Ebene 1"
     inkscape:groupmode="layer"
     id="layer1"
     transform="translate(-75.683902,-205.52434)">
    <g
       id="g3003"
       transform="matrix(0.37856786,0,0,0.37856786,47.032409,127.71943)">
      <g
         id="layer1-1"
         inkscape:label="Layer 1"
         transform="matrix(2.2160772,0,0,2.2160772,-442.21892,589.90517)">
        <g
           transform="matrix(2.0536042,0,0,2.0536042,203.8739,-190.57273)"
           id="g4597">
          <path
             d="m 19.081,63.143 c 0,0 3.975,1.988 5.565,3.777 1.59,1.789 16.099,14.111 17.49,15.9 1.392,1.789 3.578,6.559 4.373,8.944 0.795,2.385 2.385,7.951 2.584,10.536 0.199,2.58 1.59,6.76 1.987,8.94 0.398,2.19 2.982,6.56 2.187,6.36 -0.795,-0.2 -18.286,-4.17 -19.876,-4.97 -1.59,-0.79 -16.298,-7.55 -16.894,-8.94 -0.596,-1.39 -1.391,-12.124 -1.193,-13.913 0.199,-1.789 0.398,-17.69 0.795,-19.28 0.398,-1.59 0.398,-5.764 1.193,-6.559 0.795,-0.795 0.994,-2.583 1.789,-0.795 z"
             inkscape:connector-curvature="0"
             style="fill:#e6e6e6;fill-rule:evenodd"
             id="path1063" />
          <path
             d="m 43.329,83.368 c 0,0 16.696,-9.293 18.882,-10.088 2.186,-0.795 22.857,-9.739 24.248,-9.938 1.391,-0.199 23.051,-6.758 24.451,-5.764 1.39,0.994 6.16,13.317 6.95,16.894 0.8,3.578 4.18,12.522 2.98,14.112 -1.19,1.59 -57.238,25.836 -59.027,26.436 -0.524,0.17 -6.486,1.76 -8.827,2.22 -0.795,-1.79 -2.502,-7.99 -2.899,-9.38 -0.398,-1.39 -2.385,-10.729 -2.982,-12.319 -0.596,-1.59 -4.77,-11.179 -3.776,-12.173 z"
             style="fill:#e6e6e6;fill-rule:evenodd"
             sodipodi:nodetypes="ccccccccccc"
             inkscape:connector-curvature="0"
             id="path1686" />
          <path
             d="m 18.27,63.004 c 4.357,-3.935 9.979,-8.292 15.039,-9.838 2.389,-0.702 51.86,-13.351 53.265,-13.351 6.746,0.422 23.186,14.757 24.036,17.146 -4.64,1.827 -17.852,3.654 -20.663,4.778 -1.265,1.125 -17.849,6.325 -19.816,7.59 -1.968,1.265 -17.006,8.292 -17.709,8.994 -1.827,0.984 -6.746,3.514 -9.276,5.763 C 40.476,81.134 20.238,63.426 18.27,63.004 z"
             style="fill:#e6e6e6;fill-rule:evenodd"
             sodipodi:nodetypes="ccccccccc"
             inkscape:connector-curvature="0"
             id="path1687" />
          <path
             d="m 59.028,112.19 c -1.125,-0.28 -3.654,2.11 -3.935,0.85 -0.282,-1.27 -2.671,-8.29 -1.968,-9.42 0.703,-1.12 4.076,-2.95 6.605,-3.653 2.53,-0.703 25.298,-9.276 25.72,-9.979 0.421,-0.702 20.52,-9.697 22.06,-9.837 1.55,-0.141 8.44,-2.39 8.86,-1.125 0.42,1.265 0.56,7.449 0.98,8.433 0.42,0.984 -57.057,24.591 -58.322,24.731 z"
             inkscape:connector-curvature="0"
             style="fill:#b3b3b3;fill-rule:evenodd"
             id="path1688" />
          <path
             d="m 92.196,45.296 c 0,0 3.794,3.654 2.811,4.357 0,1.124 -10.541,3.373 -11.806,3.795 -1.265,0.421 -18.13,6.605 -19.816,7.308 -1.687,0.702 -12.509,6.605 -13.914,7.027 -1.406,0.421 -11.806,5.903 -12.508,5.903 -0.703,0 -5.341,-4.217 -5.06,-5.341 0.281,-1.124 1.827,-2.53 3.092,-2.951 1.265,-0.422 52.703,-19.676 53.406,-19.536 0.703,0.141 2.811,-0.843 3.795,-0.562 z"
             style="fill:#b3b3b3;fill-opacity:1;fill-rule:evenodd"
             sodipodi:nodetypes="cccccccccc"
             inkscape:connector-curvature="0"
             id="path1689" />
          <path
             d="m 105.27,64.129 c 0,0 0.98,2.811 2.1,2.389 1.13,-0.422 3.24,-1.546 2.53,-3.092 -0.7,-1.546 -3.65,-2.249 -4.63,0.703 z"
             inkscape:connector-curvature="0"
             style="fill:#00ff00;fill-rule:evenodd"
             id="path1690" />
          <path
             d="m 73.785,9.0362 c 0,0 -21.082,4.3568 -22.909,4.3568 -1.827,0 -17.708,3.232 -19.535,4.216 -1.827,0.984 -10.4,3.654 -10.26,4.357 0.141,0.703 6.746,16.303 7.168,17.849 0.422,1.546 6.043,14.054 6.043,16.162 0,2.108 2.249,16.444 2.249,17.006 0,0.562 8.151,-2.67 9.276,-3.373 1.124,-0.703 15.881,-8.292 17.427,-8.854 1.546,-0.562 12.649,-4.919 13.914,-5.2 1.265,-0.281 9.275,-3.654 10.821,-3.654 -0.14,-0.984 -0.843,-2.39 -0.843,-5.622 C 86.293,47.123 77.158,18.171 76.596,17.047 76.033,15.923 73.785,9.0362 73.785,9.0362 z"
             style="fill:#ffffff;fill-rule:evenodd"
             sodipodi:nodetypes="cccccccccccccc"
             inkscape:connector-curvature="0"
             id="path1691" />
          <path
             d="m 58.325,106.85 c 0,0 12.789,7.31 13.633,8.58 0.843,1.26 20.238,13.49 20.519,14.75 0.281,1.27 1.124,4.92 0.14,5.34 -0.983,0.43 -13.632,-5.2 -14.757,-6.88 -1.124,-1.69 -10.962,-10.68 -12.227,-11.53 -1.265,-0.84 -6.886,-4.63 -7.308,-5.62 -0.422,-0.98 -0.562,-4.36 0,-4.64 z"
             inkscape:connector-curvature="0"
             style="fill:#e6e6e6;fill-rule:evenodd"
             id="path1692" />
          <path
             d="m 58.184,106.43 c 0,0 28.249,-11.663 29.374,-11.804 1.124,-0.14 23.612,-10.259 24.592,-10.259 0.99,0 7.73,4.638 8.58,5.2 0.84,0.562 24.87,12.363 25.01,13.353 0.14,0.98 -1.68,1.68 -3.37,2.67 -1.87,1.35 -8.71,5.62 -15.04,8.99 -2.53,0.42 -27.12,11.81 -28.669,12.65 -1.546,0.85 -4.779,3.38 -5.903,2.81 C 91.634,129.48 76.455,118.66 75.19,117.82 73.925,116.97 59.449,105.73 58.184,106.43 z"
             style="fill:#e6e6e6;fill-rule:evenodd"
             sodipodi:nodetypes="ccccccccccc"
             inkscape:connector-curvature="0"
             id="path1694" />
          <path
             d="m 145.85,103.73 c 0,0 -3.71,2.13 -5,2.97 -1.3,0.83 -9,5.65 -10.11,6.12 -1.11,0.46 -14.37,6.49 -15.48,7.14 -1.12,0.65 -21.424,9.27 -22.351,10.2 -0.928,0.92 0.278,5 -0.093,5.19 -0.371,0.19 4.914,-2.32 5.656,-2.87 0.742,-0.56 23.368,-10.39 25.318,-11.04 1.94,-0.65 10.84,-3.89 11.12,-3.99 0.28,-0.09 7.14,-2.96 7.79,-3.52 0.65,-0.56 5.56,-3.89 3.15,-10.2 z"
             inkscape:connector-curvature="0"
             style="fill:#e6e6e6;fill-rule:evenodd"
             id="path1695" />
          <path
             d="m 74.15,8.3374 c -2.979,1.8426 1.841,6.4506 1.636,9.2746 4.349,10.93 8.365,23.12 11.895,34.333 2.503,-0.653 -3.471,-5.942 3.819,-6.259 -0.263,-0.627 -4.785,0.826 -4.397,-2.41 -3.335,-6.306 5.575,-0.233 8.012,1.048 6.415,4.126 13.055,8.787 16.815,15.611 1.19,4.569 4.08,9.856 5.42,14.849 0.94,3.779 3.94,11.485 2.28,13.224 -3.37,-0.908 -0.94,-4.046 -2.42,-7.391 0.95,-5.871 -5.31,0.268 -8.92,-1.157 -7.56,1.322 -14.016,5.673 -20.709,9.08 -8.856,3.782 -17.701,7.579 -26.816,10.714 -3.416,1.976 -11.724,2.186 -8.188,7.956 0.321,2.14 2.531,9.78 2.946,4.46 -1.128,-4.1 -4.278,-9.84 2.535,-10.28 9.082,-3.317 17.826,-6.864 26.638,-10.852 5.722,-2.137 8.62,-4.26 13.456,-6.319 5.248,-3.174 10.788,-3.466 16.448,-5.027 2.18,-0.254 0.8,5.089 2.07,7.039 -0.99,-2.177 -6.63,-2.687 -3.05,-0.313 10.48,6.223 21.25,11.963 31.97,17.772 3.43,-1.74 -4.54,-2.83 -5.57,-4.378 -6.11,-3.209 -12.06,-6.705 -18.12,-9.998 -0.98,-10.417 -4.9,-20.286 -8.83,-29.895 -0.98,-3.417 -4.8,-6.604 -7.62,-9.203 C 100.95,45.99 94.356,42.575 89.823,39.662 88.577,38.677 85.311,39.76 85.362,38.621 82.793,31.636 80.174,24.67 77.494,17.727 77.141,14.865 74.772,10.352 74.15,8.3404 z m -0.061,0.2469 c -5.64,1.4077 -13.983,2.5067 -19.722,3.8307 -10.659,1.642 -21.67,3.409 -31.413,8.25 -4.763,0.957 -1.303,4.626 -0.12,7.693 4.675,11.936 10.884,23.643 11.753,36.666 -2.344,1.693 -5.056,5.869 -1.204,2.117 1.79,-4.573 2.423,6.424 0.124,1.425 -5.152,-2.645 1.887,5.273 3.306,5.382 2.238,-1.688 6.576,-2.58 9.37,-4.299 9.788,-5.598 19.705,-9.818 30.311,-13.559 5.939,-2.45 11.983,-4.173 18.291,-5.358 3.18,-1.517 -1.869,-7.131 -3.77,-5.274 2.369,1.301 6.243,5.406 0.296,5.354 -9.717,2.226 -18.832,6.424 -28.203,9.741 C 54.193,64.026 46.14,69.33 37.302,72.951 36.561,71.147 36.29,65.583 35.926,64.223 34.851,50.576 27.709,38.668 22.949,26.081 18.243,20.124 29.466,19.85 33.09,17.524 c 9.82,-2.91 20.042,-4.203 30.134,-5.793 2.839,-0.128 10.96,-1.709 10.865,-3.1467 z m -41.306,44.382 c -5.792,1.444 -11.222,5.732 -15.326,9.895 -3.086,3.784 -1.944,10.545 -2.786,15.434 -0.312,8.361 -0.171,16.769 0.886,25.075 1.967,2.48 8.351,5.78 12.22,7.88 8.142,3.75 27.723,6.44 25.023,7.12 4.795,-1.82 9.827,-5.24 13.48,0.36 5.196,3.24 8.387,8.69 13.464,12.03 3.571,1.43 9.105,6.99 12.93,5.07 -6.461,-2.42 -14.47,-6.96 -18.856,-12.66 -4.914,-4.56 -11.104,-9.1 -16.212,-13.44 1.184,2.51 -3.299,2.33 -2.566,3.1 -0.426,1.74 4.203,-0.93 5.118,1.09 2.886,1.96 -5.594,2.23 -7.305,3.51 -1.541,-1.1 -5.719,-2.02 -9.046,-2.64 -9.514,-2.95 -19.006,-5.69 -26.866,-11.88 -1.745,-12.115 -1.732,-24.567 0.241,-36.654 0.073,-6.683 5.856,1.292 8.685,2.518 6.109,4.799 11.987,9.991 16.858,16.069 2.383,-2.425 7.417,-5.069 11.326,-7.007 16.532,-8.782 36.394,-17.062 54.939,-19.897 2.59,0.195 4.12,-1.894 1.19,-0.886 -4.56,0.522 -8.83,1.806 -13.445,2.768 -18.536,4.493 -37.02,13.631 -53.269,23.536 0.595,0.129 -4.925,-5.016 -6.713,-6.921 -5.394,-5.154 -11.285,-9.757 -17.281,-14.184 3.324,-3.743 9.12,-6.319 13.41,-8.502 1.021,-0.513 -0.367,-0.573 -0.099,-0.784 z m 75.367,7.872 c -1.73,0.569 -6,5.14 -2.39,3.708 0.99,-5.265 6.31,0.266 1.67,1.527 -1.1,-3.596 -4.67,-0.797 -1.32,0.887 3.66,1.037 6.66,-5.034 2.04,-6.122 z m -64.534,22.413 c -2.837,2.435 3.233,8.312 2.856,11.986 1.509,5.853 3.721,11.873 3.75,17.943 1.255,-0.73 2.19,7.6 3.47,3.9 -0.945,-3.58 -3.611,-8.17 -3.963,-12.74 -1.102,-6.893 -2.939,-14.832 -6.113,-21.089 z m 68.554,0.414 c -16.39,7.194 -33.45,14.144 -50.279,20.265 -1.797,1.11 -5.466,1.64 -5.052,4.19 0.029,5.48 2.131,0.57 1.995,-0.23 9.607,5.67 18.724,12.11 27.648,18.8 3.556,0.64 5.915,6.25 5.907,9.23 2.712,-1.53 -0.757,-6.75 3.704,-6.7 10.297,-4.64 20.557,-9.81 30.867,-14.42 6.37,-3.31 12.78,-6.72 18.46,-11.07 -4.96,2.43 -9.07,6.42 -14.29,8.54 -9.48,4.9 -19.54,8.58 -29.19,13.16 -3.429,0.6 -7.462,5.1 -10.044,3.03 -3.206,-3.01 -6.465,-3.68 -9.791,-6.59 -7.425,-5.64 -15.327,-10.59 -23.163,-15.63 12.227,-4.07 24.024,-9.374 35.969,-14.201 5.289,-2.482 12.829,-4.376 17.969,-7.077 1.52,0.17 -0.87,-1.166 -0.71,-1.297 z m 34.25,18.955 c -3.39,1.21 0.33,7.39 -2,9.4 -6.91,5.54 -16.05,7.09 -24.15,10.27 -9.59,3.59 -19.27,7.68 -27.817,13.35 4.182,-2.1 8.537,-4.08 12.847,-6.01 9.55,-4.95 19.82,-8.21 29.81,-12.07 4.24,-2.68 11.58,-3.43 11.51,-9.11 0.21,-1.78 -0.17,-4.03 -0.2,-5.83 z"
             style="fill:#000000"
             sodipodi:nodetypes="cccccccccccccccccccccccccccccccccccccccccccccccccccccccccccccccccccccccccccccccccccccccccccccccccccccccccccccccccc"
             inkscape:connector-curvature="0"
             id="path1062" />
        </g>
      </g>
      <path
         inkscape:original-d="m 235.30552,294.03027 h 36.57209 c 6.74528,0 12.16259,1.53876 16.23084,4.63738 4.06825,3.09862 6.11291,7.75708 6.11291,14.01755 0,3.79422 -0.92748,7.04039 -2.78242,9.7385 -1.85496,2.69811 -4.51092,4.80601 -7.96787,6.28154 v 0.21079 c 4.63738,0.99072 8.15757,3.18293 10.5395,6.57666 2.38193,3.41479 3.58343,7.67276 3.58343,12.81603 0,2.95106 -0.52697,5.71242 -1.58092,8.26297 -1.05396,2.57164 -2.69811,4.78494 -4.95357,6.63989 -2.25545,1.85496 -5.1222,3.33049 -8.6424,4.42659 -3.52019,1.09611 -7.69383,1.64417 -12.54201,1.64417 h -34.56958 l 0,-75.25207 0,0 z m 13.17439,31.51312 h 21.50059 c 3.16186,0 5.79673,-0.88532 7.90463,-2.69811 2.1079,-1.8128 3.16185,-4.38444 3.16185,-7.75708 0,-3.79422 -0.94855,-6.47125 -2.84567,-8.01002 -1.89711,-1.53877 -4.63738,-2.31869 -8.22081,-2.31869 h -21.50059 l 0,20.7839 0,0 z m 0,32.98865 h 23.2923 c 4.00502,0 7.12471,-1.03287 9.31692,-3.11969 2.2133,-2.06574 3.33049,-5.01681 3.33049,-8.81103 0,-3.73098 -1.09611,-6.57665 -3.33049,-8.60024 -2.23437,-2.02358 -5.3119,-2.99321 -9.31692,-2.99321 h -23.2923 v 23.52417 z m 80.77477,14.9661 c 0,11.82533 -9.67527,21.50059 -21.50059,21.50059 h -86.00237 c -11.82532,0 -21.50059,-9.67526 -21.50059,-21.50059 v -86.00237 c 0,-11.82532 9.67527,-21.50059 21.50059,-21.50059 h 86.00237 c 11.82532,0 21.50059,9.67527 21.50059,21.50059 v 86.00237 z"
         inkscape:path-effect="#path-effect4648"
         inkscape:connector-curvature="0"
         d="m 207.73682,300.84301 c 11.66342,-4.00566 23.67243,-7.57555 36.16382,-10.90241 0.41892,-0.11166 0.83835,-0.22308 1.2583,-0.33429 2.72666,-0.71905 5.47702,-1.42663 8.24968,-2.12732 8.78204,-2.21934 16.65004,-2.13548 23.37569,0.0432 6.72566,2.17871 11.42088,6.69308 14.0019,13.75031 1.56425,4.2771 1.64063,8.28382 0.25764,12.05585 -1.38303,3.77203 -4.07252,7.20971 -8.00988,10.25889 0.0286,0.0803 0.0573,0.16069 0.0859,0.24103 5.67226,-0.60803 10.66082,0.13769 14.83618,2.23053 0,0 0,0 0,0 0.60344,0.30196 1.19006,0.63219 1.75958,0.9908 4.52175,2.86572 7.76115,7.12884 9.69097,12.90144 1.10728,3.31216 1.4319,6.63761 1.00014,9.95643 -0.42387,3.34244 -1.74175,6.53945 -3.94104,9.602 -2.19928,3.06256 -5.28819,5.96597 -9.28201,8.74611 -3.99381,2.78015 -8.96373,5.25215 -14.90955,7.45008 -1.79314,0.66285 -3.57752,1.32878 -5.35368,1.99803 -0.39847,0.15045 -0.79657,0.30103 -1.19429,0.45175 -11.85983,4.49011 -23.36377,9.14246 -34.95226,13.83339 -2.60499,-6.92688 -5.01024,-13.94959 -7.42295,-20.98831 -2.41271,-7.03871 -4.83075,-14.09348 -7.33464,-21.13554 -2.8684,-8.09586 -5.84348,-16.20347 -8.91494,-24.35439 -3.07146,-8.15092 -6.23697,-16.34587 -9.36455,-24.66762 0,0 0,0 0,0 z m 30.08746,32.97272 c 6.40456,-2.19488 12.93286,-4.34022 19.61867,-6.45859 0.40844,-0.12954 0.81747,-0.25899 1.22709,-0.38835 1.86898,-0.58824 3.75126,-1.1739 5.64682,-1.75785 4.003,-1.23315 7.02535,-3.28472 9.00518,-6.18565 1.97983,-2.90095 2.29761,-6.25115 0.88173,-10.13581 -1.59286,-4.37023 -3.97343,-7.11844 -7.10912,-8.23502 -3.13569,-1.11658 -7.05095,-1.07919 -11.65201,0.18734 -1.92244,0.52919 -3.83232,1.06139 -5.72936,1.59785 -0.41571,0.11804 -0.83085,0.23623 -1.24543,0.35459 -6.78581,1.93564 -13.42088,3.91873 -19.92056,5.98804 3.12871,8.41455 6.25504,16.73993 9.27699,25.03345 0,0 0,0 0,0 z m 13.92054,39.26718 c 6.3597,-2.43736 12.79395,-4.8449 19.35345,-7.22375 0.40073,-0.14548 0.80193,-0.29086 1.20361,-0.43616 2.56395,-0.92519 5.14904,-1.84541 7.75617,-2.7619 4.98529,-1.75249 8.52369,-4.28198 10.50433,-7.59762 2.01595,-3.30076 2.32663,-7.12452 0.84486,-11.44482 -1.45707,-4.2483 -4.01631,-7.03627 -7.72638,-8.44225 -3.71005,-1.40598 -8.09081,-1.28851 -13.16001,0.32964 -2.65102,0.84624 -5.27652,1.69479 -7.87651,2.54766 -0.40736,0.13405 -0.81414,0.26816 -1.22034,0.40235 -6.64928,2.19434 -13.14481,4.41135 -19.5265,6.66757 3.33918,9.34864 6.5325,18.70698 9.84732,27.95928 0,0 0,0 0,0 z m 108.10774,-20.36945 c 0.99407,3.23282 1.17106,6.6652 0.66728,10.0744 -0.50378,3.4092 -1.68583,6.78903 -3.39825,9.88533 -1.71242,3.0963 -3.94966,5.90394 -6.62165,8.23197 -2.672,2.32803 -5.78063,4.17968 -9.32977,5.44464 -8.45675,3.0141 -16.8258,5.94956 -25.14607,9.06378 -8.32027,3.11422 -16.59262,6.40354 -24.91488,9.91408 -0.38623,0.16293 -0.77257,0.32629 -1.15904,0.4901 -6.30986,2.6744 -12.65249,5.47657 -19.09017,8.3683 -6.43767,2.89173 -12.97065,5.87242 -19.67248,8.85955 0,0 -1e-5,0 -1e-5,0 -4.49327,2.00283 -9.06265,4.00741 -13.73226,5.97984 -3.85805,1.62962 -7.99318,2.46423 -12.05647,2.50702 -4.06328,0.0428 -8.04749,-0.70769 -11.63958,-2.16362 -3.59208,-1.45593 -6.79293,-3.61286 -9.36977,-6.32607 -2.57684,-2.71321 -4.5313,-5.97907 -5.68315,-9.66272 -2.54767,-8.14748 -4.97443,-16.28131 -7.45464,-24.37376 -2.48022,-8.09245 -5.00928,-16.14344 -7.63773,-24.1405 -3.13353,-9.53329 -6.4101,-18.99981 -9.87443,-28.42402 -3.46433,-9.42421 -7.11097,-18.80782 -10.9575,-28.17696 -1.45885,-3.55336 -2.14516,-7.20789 -2.14623,-10.82394 -0.001,-3.61604 0.6838,-7.19938 2.02189,-10.58049 1.3381,-3.38112 3.33622,-6.56164 5.95223,-9.2782 2.616,-2.71657 5.85226,-4.96231 9.57761,-6.42012 4.50901,-1.76447 9.06898,-3.4338 13.67066,-4.98741 6.86341,-2.31735 13.82392,-4.37708 20.85667,-6.20047 7.03276,-1.82338 14.13665,-3.41351 21.26843,-4.86311 0.43683,-0.0888 0.87376,-0.17706 1.31079,-0.26485 0,0 0,0 0,0 9.41815,-1.8921 18.89591,-3.52717 28.34303,-5.20151 9.44713,-1.67435 18.86035,-3.40198 28.18521,-5.35566 3.91347,-0.81992 7.80546,-0.95769 11.54701,-0.53092 3.74155,0.42677 7.33563,1.42039 10.60752,2.90203 6.54376,2.96329 11.77399,7.88042 14.04208,14.17716 5.98023,16.60257 12.23769,32.98091 18.04691,49.57361 2.43665,6.95935 4.79937,13.95512 7.08761,21.00322 2.28824,7.0481 4.50049,14.14899 6.69915,21.2993 z"
         style="fill:#563d7c;fill-opacity:1;fill-rule:evenodd"
         id="path3975" />
    </g>
  </g>
</svg>
